<?xml version="1.0" encoding="UTF-8"?>
<svg width="376px" height="48px" viewBox="0 0 376 48" version="1.1" xmlns="http://www.w3.org/2000/svg" xmlns:xlink="http://www.w3.org/1999/xlink">
    <!-- Generator: Sketch 51.2 (57519) - http://www.bohemiancoding.com/sketch -->
    <title>Jörn Threlfall</title>
    <desc>Created with Sketch.</desc>
    <defs></defs>
    <g id="Page-1" stroke="none" stroke-width="1" fill="none" fill-rule="evenodd">
        <g id="Facebook-/-Meta-Image" transform="translate(-412.000000, -291.000000)" fill="#000000">
            <path d="M437.92,291.864 L444.112,291.864 L444.112,321.744 C444.112,332.616 437.92,338.088 428.272,338.088 C418.696,338.088 412.432,332.4 412,321.6 L417.904,321.24 C418.408,328.584 421.864,332.976 428.416,332.976 C434.824,332.976 437.92,329.232 437.92,321.6 L437.92,291.864 Z M458.08,299.208 L458.08,292.44 L463.984,292.44 L463.984,299.208 L458.08,299.208 Z M468.016,299.208 L468.016,292.44 L473.848,292.44 L473.848,299.208 L468.016,299.208 Z M456.064,321.528 C456.064,328.512 459.592,333.48 465.928,333.48 C472.336,333.48 475.936,328.512 475.936,321.528 C475.936,314.472 472.336,309.576 465.928,309.576 C459.592,309.576 456.064,314.472 456.064,321.528 Z M482.056,321.528 C482.056,331.32 475.216,338.088 465.928,338.088 C456.712,338.088 449.944,331.32 449.944,321.528 C449.944,311.736 456.712,304.896 465.928,304.896 C475.216,304.896 482.056,311.736 482.056,321.528 Z M507.616,306.336 L507.04,311.736 C505.312,310.8 504.088,310.44 502.144,310.44 C497.608,310.44 494.224,314.544 494.224,320.592 L494.224,337.224 L488.248,337.224 L488.248,305.76 L494.224,305.76 L494.224,312.168 C495.376,308.568 498.616,304.896 503.152,304.896 C505.096,304.896 506.536,305.4 507.616,306.336 Z M518.056,319.152 L518.056,337.224 L512.08,337.224 L512.08,305.76 L518.056,305.76 L518.056,311.376 C519.568,307.56 523.816,304.896 528.496,304.896 C536.704,304.896 540.016,310.368 540.016,317.712 L540.016,337.224 L534.04,337.224 L534.04,318.216 C534.04,312.96 531.52,309.648 526.552,309.648 C521.8,309.648 518.056,313.392 518.056,319.152 Z M580.84,337.224 L574.648,337.224 L574.648,297.048 L558.16,297.048 L558.16,291.864 L597.616,291.864 L597.616,297.048 L580.84,297.048 L580.84,337.224 Z M609.208,319.152 L609.208,337.224 L603.232,337.224 L603.232,291.864 L609.208,291.864 L609.208,311.376 C610.72,307.56 614.968,304.896 619.648,304.896 C627.856,304.896 631.168,310.368 631.168,317.712 L631.168,337.224 L625.192,337.224 L625.192,318.216 C625.192,312.96 622.672,309.648 617.704,309.648 C612.952,309.648 609.208,313.392 609.208,319.152 Z M658.312,306.336 L657.736,311.736 C656.008,310.8 654.784,310.44 652.84,310.44 C648.304,310.44 644.92,314.544 644.92,320.592 L644.92,337.224 L638.944,337.224 L638.944,305.76 L644.92,305.76 L644.92,312.168 C646.072,308.568 649.312,304.896 653.848,304.896 C655.792,304.896 657.232,305.4 658.312,306.336 Z M686.68,326.064 L691.648,326.64 C690.064,333.768 684.808,338.088 676.96,338.088 C667.6,338.088 660.76,331.752 660.76,321.96 C660.76,312.024 667.6,304.896 676.672,304.896 C686.68,304.896 691.792,312.024 691.792,320.592 L691.792,322.968 L666.736,322.968 C667.024,329.088 671.416,333.408 677.032,333.408 C682.288,333.408 685.384,330.888 686.68,326.064 Z M666.88,319.08 L685.672,319.08 C685.456,314.04 682.648,309.432 676.672,309.432 C670.984,309.432 667.6,313.896 666.88,319.08 Z M697.984,291.864 L703.96,291.864 L703.96,337.224 L697.984,337.224 L697.984,291.864 Z M713.32,310.08 L708.496,310.08 L708.496,305.76 L713.32,305.76 L713.32,302.088 C713.32,295.392 717.136,291 723.76,291 C729.16,291 732.184,293.448 733.624,298.2 L729.52,299.64 C728.728,297.192 726.928,295.32 724.048,295.32 C720.736,295.32 719.224,297.696 719.224,301.44 L719.224,305.76 L728.08,305.76 L728.08,310.08 L719.224,310.08 L719.224,337.224 L713.32,337.224 L713.32,310.08 Z M752.2,323.184 L752.2,321.672 L745.144,323.184 C740.176,324.264 737.008,325.2 737.008,329.016 C737.008,331.68 738.808,333.696 742.408,333.696 C747.952,333.696 752.2,329.52 752.2,323.184 Z M757.96,316.92 L757.96,331.032 C757.96,332.688 758.896,333.48 760.408,333.48 C761.128,333.48 762.28,333.264 763.144,332.76 L763.144,336 C762.064,337.08 760.768,337.872 758.32,337.872 C755.08,337.872 752.776,335.424 752.416,331.68 C750.688,335.352 746.224,338.088 741.112,338.088 C734.992,338.088 731.032,334.776 731.032,329.376 C731.032,323.4 736.144,320.952 743.704,319.44 L752.2,317.712 L752.2,316.488 C752.2,312.168 749.68,309.504 745.288,309.504 C740.752,309.504 738.304,312.168 737.368,315.84 L732.04,315.12 C733.264,309.216 737.944,304.896 745.36,304.896 C753.28,304.896 757.96,308.928 757.96,316.92 Z M767.824,291.864 L773.8,291.864 L773.8,337.224 L767.824,337.224 L767.824,291.864 Z M781.936,291.864 L787.912,291.864 L787.912,337.224 L781.936,337.224 L781.936,291.864 Z" id="Jörn-Threlfall"></path>
        </g>
    </g>
</svg>