<?xml version="1.0" encoding="UTF-8"?>
<svg width="710px" height="92px" viewBox="0 0 710 92" version="1.1" xmlns="http://www.w3.org/2000/svg" xmlns:xlink="http://www.w3.org/1999/xlink">
    <!-- Generator: Sketch 59.1 (86144) - https://sketch.com -->
    <title>JÖRNTHRELFALL</title>
    <desc>Created with Sketch.</desc>
    <g id="Page-1" stroke="none" stroke-width="1" fill="none" fill-rule="evenodd">
        <g id="Facebook-/-Shared-Image" transform="translate(-245.000000, -269.000000)" fill="#000000" fill-rule="nonzero">
            <path d="M290.2,289.8 L276,289.8 L276,336.5 C276,344.3 273.9,348.2 268.2,348.2 C262.6,348.2 259.8,344 259.2,337.3 L245,337.3 C245.9,351.5 254.3,360.8 268.2,360.8 C283.545,360.8 290.0691,349.92089 290.198047,335.828032 L290.2,289.8 Z M325,288.8 C310,288.8 299.5,301.4 299.5,324.8 C299.5,348.2 310,360.8 325,360.8 C340,360.8 350.5,348.2 350.5,324.8 C350.5,301.4 340,288.8 325,288.8 Z M336.3,324.8 C336.3,341.3 331.5,348.2 325,348.2 C318.5,348.2 313.7,341.3 313.7,324.8 C313.7,308.3 318.5,301.4 325,301.4 C331.5,301.4 336.3,308.3 336.3,324.8 Z M309.8,280.8 L322.6,280.8 L322.6,269 L309.8,269 L309.8,280.8 Z M327.3,280.8 L340.1,280.8 L340.1,269 L327.3,269 L327.3,280.8 Z M374,329.4 L380,329.4 L397.1,359.8 L409.5,359.8 L395.7,327.7 C401.8,324.4 405.4,318.5 405.4,309.6 C405.4,297 397.1,289.8 384.2,289.8 L359.8,289.8 L359.8,359.8 L374,359.8 L374,329.4 Z M374,302.4 L384.2,302.4 C389.2,302.4 391.5,305 391.5,309.6 C391.5,314.2 389.2,316.8 384.2,316.8 L374,316.8 L374,302.4 Z M452.6,359.8 L464.4,359.8 L464.4,289.8 L450.2,289.8 L450.2,328.4 L431,289.8 L415.8,289.8 L415.8,359.8 L430,359.8 L430,321.3 L452.6,359.8 Z M494.4,302.4 L510.6,302.4 L510.6,359.8 L524.8,359.8 L524.8,302.4 L541,302.4 L541,289.8 L494.4,289.8 L494.4,302.4 Z M595.7,289.8 L581.5,289.8 L581.5,316.8 L562.2,316.8 L562.2,289.8 L548,289.8 L548,359.8 L562.2,359.8 L562.2,329.4 L581.5,329.4 L581.5,359.8 L595.7,359.8 L595.7,289.8 Z M620.9,329.4 L626.9,329.4 L644,359.8 L656.4,359.8 L642.6,327.7 C648.7,324.4 652.3,318.5 652.3,309.6 C652.3,297 644,289.8 631.1,289.8 L606.7,289.8 L606.7,359.8 L620.9,359.8 L620.9,329.4 Z M620.9,302.4 L631.1,302.4 C636.1,302.4 638.4,305 638.4,309.6 C638.4,314.2 636.1,316.8 631.1,316.8 L620.9,316.8 L620.9,302.4 Z M662.7,359.8 L703.5,359.8 L703.5,347.2 L676.9,347.2 L676.9,329.4 L694.2,329.4 L694.2,316.8 L676.9,316.8 L676.9,302.4 L703.5,302.4 L703.5,289.8 L662.7,289.8 L662.7,359.8 Z M712.4,359.8 L751.3,359.8 L751.3,347.2 L726.6,347.2 L726.6,289.8 L712.4,289.8 L712.4,359.8 Z M758.4,359.8 L772.6,359.8 L772.6,330 L790.5,330 L790.5,317.4 L772.6,317.4 L772.6,302.4 L799.8,302.4 L799.8,289.8 L758.4,289.8 L758.4,359.8 Z M803.9,359.8 L819.6,359.8 L823.3,344.8 L843.5,344.8 L847.2,359.8 L862.9,359.8 L841.2,289.8 L825.6,289.8 L803.9,359.8 Z M833.4,304.2 L840.4,332.2 L826.4,332.2 L833.4,304.2 Z M869.2,359.8 L908.1,359.8 L908.1,347.2 L883.4,347.2 L883.4,289.8 L869.2,289.8 L869.2,359.8 Z M915.2,359.8 L915.2,289.8 L929.4,289.8 L929.4,347.2 L954.1,347.2 L954.1,359.8 L915.2,359.8 Z" id="JÖRNTHRELFALL"></path>
        </g>
    </g>
</svg>