<svg aria-hidden="true" style="position: absolute; width: 0; height: 0; overflow: hidden;" version="1.1" xmlns="http://www.w3.org/2000/svg" xmlns:xlink="http://www.w3.org/1999/xlink">
<defs>
<symbol id="icon-logo" viewBox="0 0 32 32">
<title>logo</title>
<path d="M4.982 4.393l1.36-1.078c0.769-0.609 1.302-0.48 1.64-0.054 0.39 0.492 0.054 0.987-0.107 1.148 0.301-0.198 0.87-0.414 1.277 0.099 0.426 0.537 0.169 1.198-0.427 1.67l-1.431 1.134-2.313-2.92zM7.141 4.56c0.157-0.124 0.424-0.356 0.185-0.658-0.223-0.281-0.477-0.1-0.617 0.011l-0.6 0.475 0.481 0.608 0.55-0.436zM8.079 5.829c0.236-0.187 0.553-0.458 0.287-0.793-0.278-0.352-0.579-0.127-0.728-0.009l-0.628 0.498 0.56 0.707 0.509-0.403z"></path>
<path d="M12.234 0.359c1.317-0.322 2.1 0.639 2.31 1.499 0.237 0.969-0.199 2.053-1.363 2.337-1.194 0.292-2.028-0.499-2.271-1.493-0.201-0.825 0.016-2.024 1.323-2.343zM13 3.425c0.671-0.164 0.76-0.848 0.636-1.356-0.16-0.656-0.575-1.109-1.216-0.952-0.687 0.168-0.738 0.87-0.619 1.357 0.141 0.579 0.548 1.11 1.199 0.951z"></path>
<path d="M19.211 0.321c0.544 0.101 1.38 0.4 1.186 1.448-0.115 0.622-0.514 0.806-0.939 0.872l0.575 1.619-1.006-0.186-0.489-1.442-0.57-0.106-0.242 1.307-0.923-0.171 0.678-3.662 1.732 0.321zM18.086 1.845l0.757 0.14c0.524 0.097 0.623-0.292 0.644-0.406 0.088-0.477-0.293-0.559-0.454-0.589l-0.762-0.141-0.185 0.996z"></path>
<path d="M23.586 6.304l0.19-2.581-1.272 1.827-0.736-0.513 2.129-3.057 0.749 0.522-0.21 2.619 1.297-1.862 0.732 0.51-2.129 3.057-0.749-0.522z"></path>
<path d="M0.131 14.69l0.615-0.104 0.181-1.36-0.567-0.262 0.131-0.983 3.51 1.862-0.128 0.962-3.874 0.868 0.131-0.983zM3.061 14.191l-1.498-0.663-0.125 0.936 1.623-0.273z"></path>
<path d="M0.82 20.693l1.809-1.851-2.15 0.577-0.232-0.866 3.597-0.965 0.236 0.882-1.848 1.867 2.191-0.588 0.231 0.861-3.598 0.965-0.236-0.881z"></path>
<path d="M5.539 22.369l0.798 0.997c0.9 1.124 0.788 2.005-0.168 2.77-0.692 0.554-1.694 0.863-2.621-0.294l-0.917-1.145 2.908-2.328zM3.804 24.962l0.188 0.235c0.501 0.626 0.944 0.731 1.603 0.203 0.453-0.363 0.713-0.814 0.205-1.449l-0.287-0.358-1.709 1.369z"></path>
<path d="M14.881 28.122c0.55 0.065 1.403 0.309 1.278 1.368-0.074 0.629-0.46 0.838-0.88 0.932l0.68 1.578-1.016-0.12-0.583-1.407-0.576-0.068-0.156 1.32-0.932-0.11 0.437-3.699 1.75 0.207zM13.858 29.717l0.765 0.090c0.529 0.063 0.602-0.332 0.616-0.448 0.057-0.482-0.33-0.538-0.492-0.558l-0.77-0.091-0.119 1.006z"></path>
<path d="M21.195 31.074l-0.339-0.524-1.321 0.37-0.017 0.624-0.955 0.268 0.325-3.96 0.935-0.262 2.327 3.217-0.955 0.267zM19.58 28.579l-0.017 1.638 0.91-0.255-0.892-1.383z"></path>
<path d="M24.498 29.497l-2.058-3.106 0.774-0.513 2.058 3.105-0.774 0.513z"></path>
<path d="M27.164 23.398c-0.386 0.042-0.719 0.172-0.964 0.489-0.232 0.301-0.163 0.574-0.025 0.68 0.159 0.123 0.331 0.055 0.562-0.166l0.297-0.29c0.702-0.685 1.181-0.821 1.686-0.431 0.622 0.48 0.644 1.29-0.008 2.134-0.532 0.689-1.052 0.854-1.636 0.884l0.077-0.834c0.39-0.012 0.785-0.248 1.030-0.565 0.168-0.217 0.323-0.617 0.077-0.807-0.209-0.161-0.461 0.044-0.697 0.282l-0.307 0.303c-0.471 0.463-1.039 0.698-1.557 0.298-0.581-0.448-0.653-1.191-0.067-1.951 0.48-0.622 1.065-0.791 1.563-0.867l-0.031 0.843z"></path>
<path d="M27.502 20.482l0.735-2.654 0.696 0.193-0.487 1.759 0.651 0.18 0.455-1.642 0.681 0.189-0.455 1.643 0.854 0.236 0.531-1.917 0.707 0.196-0.779 2.812-3.59-0.994z"></path>
<path d="M28.4 15.917l-0.166-1.266c-0.188-1.428 0.365-2.123 1.578-2.282 0.879-0.116 1.896 0.139 2.089 1.609l0.191 1.454-3.692 0.485zM31.228 14.598l-0.039-0.298c-0.105-0.795-0.428-1.114-1.265-1.004-0.575 0.076-1.032 0.327-0.926 1.133l0.060 0.455 2.17-0.286z"></path>
</symbol>
<symbol id="icon-spotify" viewBox="0 0 16 16">
<title>spotify</title>
<path d="M8 0c-4.4 0-8 3.6-8 8s3.6 8 8 8 8-3.6 8-8-3.559-8-8-8zM11.681 11.559c-0.159 0.241-0.441 0.319-0.681 0.159-1.881-1.159-4.241-1.4-7.041-0.759-0.281 0.081-0.519-0.119-0.6-0.359-0.081-0.281 0.119-0.519 0.359-0.6 3.041-0.681 5.681-0.4 7.759 0.881 0.281 0.119 0.322 0.438 0.203 0.678zM12.641 9.359c-0.2 0.281-0.559 0.4-0.841 0.2-2.159-1.319-5.441-1.719-7.959-0.919-0.319 0.081-0.681-0.081-0.759-0.4-0.081-0.319 0.081-0.681 0.4-0.759 2.919-0.881 6.519-0.441 9 1.081 0.238 0.119 0.359 0.519 0.159 0.797zM12.719 7.119c-2.559-1.519-6.841-1.681-9.281-0.919-0.4 0.119-0.8-0.119-0.919-0.481-0.119-0.4 0.119-0.8 0.481-0.919 2.841-0.841 7.519-0.681 10.481 1.081 0.359 0.2 0.481 0.681 0.281 1.041-0.203 0.278-0.681 0.397-1.044 0.197z"></path>
</symbol>
<symbol id="icon-facebook" viewBox="0 0 24 24">
<title>facebook</title>
<path d="M18 7c0.6 0 1-0.4 1-1v-4c0-0.6-0.4-1-1-1h-3c-3.3 0-6 2.7-6 6v2h-2c-0.6 0-1 0.4-1 1v4c0 0.6 0.4 1 1 1h2v7c0 0.6 0.4 1 1 1h4c0.6 0 1-0.4 1-1v-7h2c0.5 0 0.9-0.3 1-0.8l1-4c0.1-0.3 0-0.6-0.2-0.9s-0.5-0.3-0.8-0.3h-3v-2h3zM14 11h2.7l-0.5 2h-2.2c-0.6 0-1 0.4-1 1v7h-2v-7c0-0.6-0.4-1-1-1h-2v-2h2c0.6 0 1-0.4 1-1v-3c0-2.2 1.8-4 4-4h2v2h-2c-1.1 0-2 0.9-2 2v3c0 0.6 0.4 1 1 1z"></path>
</symbol>
<symbol id="icon-twitter" viewBox="0 0 24 24">
<title>twitter</title>
<path d="M23.6 2.2c-0.3-0.2-0.8-0.2-1.1 0-0.7 0.5-1.5 0.9-2.3 1.2-2-1.8-5.1-1.9-7.2-0.1-1.3 1.1-2 2.6-2 4.2-2.9-0.2-5.5-1.7-7.2-4.1-0.2-0.3-0.5-0.4-0.9-0.4s-0.7 0.3-0.8 0.6c-0.1 0.1-1.1 2.5-1 5.4 0.1 2.5 1.1 5.7 4.8 8-1.5 0.7-3.2 1-4.9 1-0.4 0-0.9 0.3-1 0.7s0.1 0.9 0.5 1.1c2.5 1.4 5.2 2.1 7.7 2.1s4.9-0.6 7.1-1.9c4.3-2.4 6.7-7 6.7-12.5 0-0.2 0-0.3 0-0.5 1-1.1 1.7-2.4 2-3.8 0.1-0.4-0.1-0.8-0.4-1zM20.2 6c-0.2 0.2-0.3 0.6-0.3 0.9 0.1 0.2 0.1 0.4 0.1 0.6 0 4.8-2.1 8.7-5.7 10.8-2.8 1.6-6.1 2-9.4 1.2 1.3-0.4 2.5-0.9 3.6-1.7 0.4-0.2 0.5-0.5 0.5-0.9s-0.3-0.7-0.6-0.8c-5.8-2.6-5.6-7.5-5-10 2.2 2.2 5.3 3.5 8.6 3.4 0.5 0 1-0.5 1-1v-1c0-1 0.4-2 1.2-2.7 1.4-1.3 3.7-1.1 4.9 0.3 0.3 0.3 0.7 0.4 1 0.3 0.2-0.1 0.5-0.1 0.7-0.2-0.2 0.3-0.4 0.5-0.6 0.8z"></path>
</symbol>
<symbol id="icon-instagram" viewBox="0 0 24 24">
<title>instagram</title>
<path d="M17 1h-10c-3.3 0-6 2.7-6 6v10c0 3.3 2.7 6 6 6h10c3.3 0 6-2.7 6-6v-10c0-3.3-2.7-6-6-6zM21 17c0 2.2-1.8 4-4 4h-10c-2.2 0-4-1.8-4-4v-10c0-2.2 1.8-4 4-4h10c2.2 0 4 1.8 4 4v10z"></path>
<path d="M12.8 7c-0.5-0.1-1-0.1-1.5 0-2.7 0.4-4.6 3-4.2 5.7 0.2 1.3 0.9 2.5 2 3.3 0.9 0.6 1.9 1 3 1 0.2 0 0.5 0 0.7-0.1 1.3-0.2 2.5-0.9 3.3-2s1.1-2.4 0.9-3.7c-0.3-2.2-2-3.9-4.2-4.2zM14.5 13.7c-0.5 0.6-1.2 1.1-2 1.2-1.6 0.2-3.2-0.9-3.4-2.5-0.3-1.6 0.9-3.2 2.5-3.4 0.1 0 0.3 0 0.4 0s0.3 0 0.4 0c1.3 0.2 2.3 1.2 2.5 2.5 0.2 0.8 0 1.6-0.4 2.2z"></path>
<path d="M16.8 5.8c-0.2 0.2-0.3 0.4-0.3 0.7s0.1 0.5 0.3 0.7c0.2 0.2 0.5 0.3 0.7 0.3 0.3 0 0.5-0.1 0.7-0.3s0.3-0.5 0.3-0.7c0-0.3-0.1-0.5-0.3-0.7-0.4-0.4-1-0.4-1.4 0z"></path>
</symbol>
<symbol id="icon-expand_more" viewBox="0 0 24 24">
<title>expand_more</title>
<path d="M16.594 8.578l1.406 1.406-6 6-6-6 1.406-1.406 4.594 4.594z"></path>
</symbol>
<symbol id="icon-play_arrow" viewBox="0 0 24 24">
<title>play_arrow</title>
<path d="M8.016 5.016l10.969 6.984-10.969 6.984v-13.969z"></path>
</symbol>
<symbol id="icon-send" viewBox="0 0 24 24">
<title>send</title>
<path d="M2.016 21v-6.984l15-2.016-15-2.016v-6.984l21 9z"></path>
</symbol>
</defs>
</svg>
