<svg aria-hidden="true" style="position: absolute; width: 0; height: 0; overflow: hidden;" version="1.1" xmlns="http://www.w3.org/2000/svg" xmlns:xlink="http://www.w3.org/1999/xlink">
<defs>
<symbol id="icon-logo" viewBox="0 0 247 32">
<title>logo</title>
<path d="M15.722 7.235h-4.939v16.243c0 2.713-0.73 4.070-2.713 4.070-1.948 0-2.922-1.461-3.13-3.791h-4.939c0.313 4.939 3.235 8.174 8.070 8.174 5.337 0 7.607-3.784 7.652-8.686l0.001-16.010zM27.826 6.887c-5.217 0-8.87 4.383-8.87 12.522s3.652 12.522 8.87 12.522c5.217 0 8.87-4.383 8.87-12.522s-3.652-12.522-8.87-12.522zM31.757 19.409c0 5.739-1.67 8.139-3.93 8.139s-3.93-2.4-3.93-8.139c0-5.739 1.67-8.139 3.93-8.139s3.93 2.4 3.93 8.139zM22.539 4.104h4.452v-4.104h-4.452v4.104zM28.626 4.104h4.452v-4.104h-4.452v4.104zM44.87 21.009h2.087l5.948 10.574h4.313l-4.8-11.165c2.122-1.148 3.374-3.2 3.374-6.296 0-4.383-2.887-6.887-7.374-6.887h-8.487v24.348h4.939v-10.574zM44.87 11.617h3.548c1.739 0 2.539 0.904 2.539 2.504s-0.8 2.504-2.539 2.504h-3.548v-5.009zM72.209 31.583h4.104v-24.348h-4.939v13.426l-6.678-13.426h-5.287v24.348h4.939v-13.391l7.861 13.391zM86.748 11.617h5.635v19.965h4.939v-19.965h5.635v-4.383h-16.209v4.383zM121.983 7.235h-4.939v9.391h-6.713v-9.391h-4.939v24.348h4.939v-10.574h6.713v10.574h4.939v-24.348zM130.748 21.009h2.087l5.948 10.574h4.313l-4.8-11.165c2.122-1.148 3.374-3.2 3.374-6.296 0-4.383-2.887-6.887-7.374-6.887h-8.487v24.348h4.939v-10.574zM130.748 11.617h3.548c1.739 0 2.539 0.904 2.539 2.504s-0.8 2.504-2.539 2.504h-3.548v-5.009zM145.287 31.583h14.191v-4.383h-9.252v-6.191h6.017v-4.383h-6.017v-5.009h9.252v-4.383h-14.191v24.348zM162.574 31.583h13.53v-4.383h-8.591v-19.965h-4.939v24.348zM178.574 31.583h4.939v-10.365h6.226v-4.383h-6.226v-5.217h9.461v-4.383h-14.4v24.348zM194.4 31.583h5.461l1.287-5.217h7.026l1.287 5.217h5.461l-7.548-24.348h-5.426l-7.548 24.348zM204.661 12.243l2.435 9.739h-4.87l2.435-9.739zM217.113 31.583h13.53v-4.383h-8.591v-19.965h-4.939v24.348zM233.113 31.583v-24.348h4.939v19.965h8.591v4.383h-13.53z"></path>
</symbol>
<symbol id="icon-arrow_back" viewBox="0 0 24 24">
<title>arrow_back</title>
<path d="M20.016 11.016v1.969h-12.188l5.578 5.625-1.406 1.406-8.016-8.016 8.016-8.016 1.406 1.406-5.578 5.625h12.188z"></path>
</symbol>
<symbol id="icon-arrow_forward" viewBox="0 0 24 24">
<title>arrow_forward</title>
<path d="M12 3.984l8.016 8.016-8.016 8.016-1.406-1.406 5.578-5.625h-12.188v-1.969h12.188l-5.578-5.625z"></path>
</symbol>
<symbol id="icon-send" viewBox="0 0 24 24">
<title>send</title>
<path d="M2.016 21v-6.984l15-2.016-15-2.016v-6.984l21 9z"></path>
</symbol>
</defs>
</svg>
